<?xml version="1.0" encoding="UTF-8"?>
<svg id="Calque_2" data-name="Calque 2" xmlns="http://www.w3.org/2000/svg" viewBox="0 0 269.53 269.53">
  <defs>
    <style>
      .cls-1 {
        fill: #fff9e6;
      }

      .cls-2 {
        fill: #ffd166;
      }

      .cls-3 {
        fill: #749e70;
      }
    </style>
  </defs>
  <g id="Calque_4" data-name="Calque 4">
    <g>
      <rect class="cls-1" x="0" y="0" width="269.53" height="269.53" rx="134.77" ry="134.77"/>
      <g>
        <g>
          <path class="cls-3" d="M81.56,219.12c-2.19,0-3.97-1.78-3.97-3.97V50.41h114.42V180.55c0,2.19-1.78,3.97-3.97,3.97s-3.97-1.78-3.97-3.97V58.34H85.52V215.16c0,2.19-1.78,3.97-3.97,3.97Z"/>
          <g>
            <path class="cls-3" d="M188.04,219.12c-.84,0-1.56-.52-1.85-1.26-26.17-15.37-44.45-42.09-49.23-71.92h-.65c-5.53,31.15-25.56,58.32-53.85,72.9-.97,.51-2.17,.12-2.67-.85s-.12-2.17,.85-2.67c27.67-14.26,47.13-41.06,52.03-71.67l.27-1.67h7.44l.24,1.7c4.23,29.64,22.32,56.27,48.4,71.24l1,.57v1.64c0,1.1-.89,1.98-1.98,1.98Z"/>
            <path class="cls-3" d="M136.43,177.2c-1.1,0-1.98-.89-1.98-1.98v-8.63c0-1.1,.89-1.98,1.98-1.98s1.98,.89,1.98,1.98v8.63c0,1.1-.89,1.98-1.98,1.98Z"/>
            <path class="cls-3" d="M136.43,206.91c-1.1,0-1.98-.89-1.98-1.98v-15.52c0-1.1,.89-1.98,1.98-1.98s1.98,.89,1.98,1.98v15.52c0,1.1-.89,1.98-1.98,1.98Z"/>
          </g>
        </g>
        <g>
          <path class="cls-2" d="M167.22,141c-1.64,0-2.98-1.33-2.98-2.98,0-15.14-12.32-27.46-27.46-27.46s-27.46,12.32-27.46,27.46c0,1.64-1.33,2.98-2.98,2.98s-2.98-1.33-2.98-2.98c0-18.42,14.99-33.41,33.41-33.41s33.41,14.99,33.41,33.41c0,1.64-1.33,2.98-2.98,2.98Z"/>
          <path class="cls-2" d="M143.67,137.34h-13.78c-1.64,0-2.98-1.33-2.98-2.98s1.33-2.98,2.98-2.98h13.78c1.64,0,2.98,1.33,2.98,2.98s-1.33,2.98-2.98,2.98Z"/>
        </g>
        <g>
          <rect class="cls-2" x="134.8" y="76.44" width="3.97" height="24.56"/>
          <rect class="cls-2" x="128.01" y="82.55" width="17.54" height="3.97"/>
        </g>
      </g>
    </g>
  </g>
</svg>