<?xml version="1.0" encoding="UTF-8"?>
<svg id="Calque_2" data-name="Calque 2" xmlns="http://www.w3.org/2000/svg" viewBox="0 0 519.44 188.88">
  <defs>
    <style>
      .cls-1 {
        fill: #3f3f40;
      }

      .cls-2 {
        fill: #ffd166;
      }

      .cls-3 {
        fill: #749e70;
      }
    </style>
  </defs>
  <g id="Calque_4" data-name="Calque 4">
    <g>
      <g>
        <g>
          <path class="cls-3" d="M4.44,188.88c-2.45,0-4.44-1.99-4.44-4.44V0H128.09V145.7c0,2.45-1.99,4.44-4.44,4.44s-4.44-1.99-4.44-4.44V8.88H8.88V184.44c0,2.45-1.99,4.44-4.44,4.44Z"/>
          <g>
            <path class="cls-3" d="M123.65,188.88c-.94,0-1.74-.58-2.07-1.41-29.3-17.21-49.76-47.13-55.12-80.52h-.72c-6.19,34.88-28.62,65.29-60.29,81.61-1.09,.57-2.43,.13-2.99-.96-.56-1.09-.13-2.43,.96-2.99,30.98-15.97,52.76-45.96,58.25-80.24l.3-1.87h8.33l.27,1.91c4.73,33.18,24.99,62.99,54.18,79.76l1.11,.64v1.84c0,1.23-.99,2.22-2.22,2.22Z"/>
            <path class="cls-3" d="M65.87,141.95c-1.23,0-2.22-.99-2.22-2.22v-9.66c0-1.23,.99-2.22,2.22-2.22s2.22,.99,2.22,2.22v9.66c0,1.23-.99,2.22-2.22,2.22Z"/>
            <path class="cls-3" d="M65.87,175.21c-1.23,0-2.22-.99-2.22-2.22v-17.38c0-1.23,.99-2.22,2.22-2.22s2.22,.99,2.22,2.22v17.38c0,1.23-.99,2.22-2.22,2.22Z"/>
          </g>
        </g>
        <g>
          <path class="cls-2" d="M100.35,101.42c-1.84,0-3.33-1.49-3.33-3.33,0-16.95-13.79-30.75-30.75-30.75s-30.75,13.79-30.75,30.75c0,1.84-1.49,3.33-3.33,3.33s-3.33-1.49-3.33-3.33c0-20.63,16.78-37.41,37.41-37.41s37.41,16.78,37.41,37.41c0,1.84-1.49,3.33-3.33,3.33Z"/>
          <path class="cls-2" d="M73.98,97.32h-15.42c-1.84,0-3.33-1.49-3.33-3.33s1.49-3.33,3.33-3.33h15.42c1.84,0,3.33,1.49,3.33,3.33s-1.49,3.33-3.33,3.33Z"/>
        </g>
        <g>
          <rect class="cls-2" x="64.05" y="29.14" width="4.44" height="27.49"/>
          <rect class="cls-2" x="56.45" y="35.99" width="19.64" height="4.44"/>
        </g>
      </g>
      <g>
        <path class="cls-1" d="M229.75,74.87h-15.73v-.9c3.72,0,3.03-3.93,1.45-7.79l-2.41-6h-17.86c-1.86,5.52-4.9,14.07,4.69,13.79v.9h-15.38v-.9c2.62-.07,4.35-.35,10.34-16.28l11.52-31.38h.76c8.41,20.28,16.97,42.07,16.97,42.07,2.28,5.52,3.72,5.45,5.66,5.59v.9Zm-16.97-15.59l-9.04-22.9-8.34,22.9h17.38Z"/>
        <path class="cls-1" d="M264.64,74.11l-7.86,1.31c-1.66,.34-1.66-1.04-1.66-1.04v-5.86c-1.24,3.66-5.72,6.97-10.34,6.97-4.97,0-9.86-1.79-9.86-10.42v-15.52c0-4.41,.07-4.76-3.86-5.03v-.83l9.79-1.31v22.48c0,5.24,3.1,7.24,7.1,7.24,3.45,0,5.93-2.41,7.17-5.31v-17.38c0-4.21,.14-4.69-3.24-4.9v-.83l9.24-1.31v26.76c0,3.31,.62,3.72,3.52,4.07v.9Z"/>
        <path class="cls-1" d="M271.32,49.62c0-2.35-.48-3.66-3.45-4.41v-.83l9.45-2v29.04c0,13.03-4.76,17.45-11.59,19.17v-.83c5.59-1.72,5.59-14.35,5.59-16.76v-23.38Zm-1.17-16.48c0-2,1.59-3.59,3.52-3.59s3.52,1.59,3.52,3.59-1.59,3.52-3.52,3.52-3.52-1.59-3.52-3.52Z"/>
        <path class="cls-1" d="M301.19,75.49c-10.48,0-15.93-7.52-15.93-16.55s5.45-16.55,15.93-16.55,15.86,7.45,15.86,16.55-5.31,16.55-15.86,16.55Zm0-32.21c-5.31,0-8.9,3.17-8.9,15.66s3.59,15.66,8.9,15.66,8.76-3.17,8.76-15.66-3.52-15.66-8.76-15.66Z"/>
        <path class="cls-1" d="M354.63,74.11l-7.86,1.31c-1.66,.34-1.66-1.04-1.66-1.04v-5.86c-1.24,3.66-5.72,6.97-10.34,6.97-4.97,0-9.86-1.79-9.86-10.42v-15.52c0-4.41,.07-4.76-3.86-5.03v-.83l9.79-1.31v22.48c0,5.24,3.1,7.24,7.1,7.24,3.45,0,5.93-2.41,7.17-5.31v-17.38c0-4.21,.14-4.69-3.24-4.9v-.83l9.24-1.31v26.76c0,3.31,.62,3.72,3.52,4.07v.9Z"/>
        <path class="cls-1" d="M379.53,43.9c1.38,1.66,1.17,4-.48,5.38-1.59,1.31-3.93,1.17-5.38-.48-.62-.76-.96-1.72-.76-2.62,.21-1.17-4.41,.48-6.55,5.11v17.17c0,3.86,.34,4.9,2.83,5.52v.9h-11.66v-.9c2.62-.76,2.76-1.93,2.76-5.52v-19.1c0-2.41-.62-3.38-3.45-4.14v-.83l9.52-2v7.24c2.55-4.69,6.48-6.69,9.24-7.03,1.24-.14,2.97,.21,3.93,1.31Z"/>
        <path class="cls-1" d="M417.66,74.18l-7.52,1.24c-1.93,.34-1.93-1.24-1.93-1.24v-3.79c-2.14,3.52-6.76,5.1-10.14,5.1-9.24,0-14.55-7.31-14.55-16.97,0-10.69,6.97-16.14,16.21-16.14,3.38,0,6.21,.97,8.48,2.55v-14.35c0-2.41-.69-3.31-3.52-3.86v-.9l9.45-1.86v45.52c0,3.38,.76,3.79,3.52,3.79v.9Zm-9.45-20.9c0-6.69-4.14-10-8.34-10-4.55,0-9.17,3.24-9.17,14.28s3.52,15.93,9.52,15.93c4.55,0,8-3.31,8-8.14v-12.07Z"/>
        <path class="cls-1" d="M423.31,42.24c4.62-3.31,4.21-7.52,3.1-7.66-.96-.14-1.86-.41-2.69-1.17-1.59-1.59-1.65-4.14-.07-5.72,1.59-1.59,4.14-1.59,5.72,0,2.41,2.41,1.24,7.31-.62,10.35-.9,1.38-2,3.17-5.03,4.76l-.41-.55Z"/>
        <path class="cls-1" d="M467.86,74.87h-11.52v-.83c2.62-.76,2.76-2.07,2.76-5.59v-14.69c0-4.97-2.34-7.86-7.17-7.86-3.45,0-6,3.17-7.1,5.52v17.04c0,3.79,.34,4.9,2.83,5.52v.9h-11.66v-.9c2.62-.76,2.76-2,2.76-5.52V30.66c0-2.41-.62-3.24-3.45-3.72v-.9l9.52-2.07v26.21c1.03-3.93,6.21-7.79,10.69-7.79,5.66,0,9.52,2.83,9.52,11.1v14.97c0,3.79,.41,4.97,2.83,5.59v.83Z"/>
        <path class="cls-1" d="M503.93,74.11l-7.86,1.31c-1.66,.34-1.66-1.04-1.66-1.04v-5.86c-1.24,3.66-5.72,6.97-10.34,6.97-4.97,0-9.86-1.79-9.86-10.42v-15.52c0-4.41,.07-4.76-3.86-5.03v-.83l9.79-1.31v22.48c0,5.24,3.1,7.24,7.1,7.24,3.45,0,5.93-2.41,7.17-5.31v-17.38c0-4.21,.14-4.69-3.24-4.9v-.83l9.24-1.31v26.76c0,3.31,.62,3.72,3.52,4.07v.9Z"/>
        <path class="cls-1" d="M519.44,74.87h-11.59v-.9c2.62-.76,2.76-2,2.76-5.52v-19.1c0-2.41-.55-3.38-3.45-4.14v-.83l9.45-2v26.07c0,3.86,.35,4.9,2.83,5.52v.9Zm-10-41.73c0-2,1.52-3.52,3.52-3.52s3.52,1.52,3.52,3.52-1.59,3.52-3.52,3.52-3.52-1.59-3.52-3.52Z"/>
      </g>
      <g>
        <path class="cls-1" d="M196.78,165.53h-11.59v-.9c2.62-.76,2.76-1.93,2.76-5.45v-37.86c0-2.41-.62-3.38-3.45-3.93v-.9l9.52-1.86v44.56c0,3.79,.34,4.83,2.76,5.45v.9Z"/>
        <path class="cls-1" d="M222.82,132.9c4.62-3.31,4.21-7.52,3.1-7.66-.96-.14-1.86-.41-2.69-1.17-1.59-1.59-1.65-4.14-.07-5.72,1.59-1.59,4.14-1.59,5.72,0,2.41,2.41,1.24,7.31-.62,10.35-.9,1.38-2,3.17-5.03,4.76l-.41-.55Z"/>
        <path class="cls-1" d="M284.25,165.53h-15.73v-.9c3.72,0,3.03-3.93,1.45-7.79l-2.41-6h-17.86c-1.86,5.52-4.9,14.07,4.69,13.79v.9h-15.38v-.9c2.62-.07,4.35-.35,10.34-16.28l11.52-31.38h.76c8.41,20.28,16.97,42.07,16.97,42.07,2.28,5.52,3.72,5.45,5.66,5.59v.9Zm-16.97-15.59l-9.04-22.9-8.34,22.9h17.38Z"/>
        <path class="cls-1" d="M314.88,133.04v.9c-2.62,0-4.69,.07-8.34,8.83l-8.55,22.76h-.69c-12.21-26.48-13.1-28.14-13.1-28.14-1.72-3.45-3.66-3.38-4.83-3.45v-.9h14.35v.9c-4.62,0-2.14,4.76-2.14,4.76l8.55,18.69,5.31-14.28s3.66-9.17-3.86-9.17v-.9h13.31Z"/>
        <path class="cls-1" d="M345.78,156.77c-.76,3.24-4.55,8.76-12.69,8.76-8.62,0-14.76-7.17-14.76-16.28,0-10.21,6.48-16.83,15.04-16.83,8,0,13.52,5.11,13.52,15.93h-22.07c.28,9.31,4.41,13.03,9.86,13.59,4.14,.41,9.03-2.14,10.28-5.52l.83,.34Zm-4.83-9.31c0-10.07-4.48-14.14-7.79-14.14-3.93,0-8.34,5.45-8.34,14.14h16.14Z"/>
        <path class="cls-1" d="M384.31,165.53h-11.59v-.83c2.62-.76,2.76-2.07,2.76-5.59v-14.83c0-4.69-2.48-7.79-7.04-7.79-3.59,0-6.48,3.45-7.03,5.93v16.76c0,3.79,.35,4.83,2.83,5.45v.9h-11.59v-.9c2.62-.76,2.69-1.93,2.69-5.45v-19.24c0-2.41-.55-3.31-3.45-4.07v-.83l9.52-2v7.24c1.45-4,6.21-7.24,10.55-7.24,5.59,0,9.52,2.69,9.52,11.04v15.04c0,3.79,.41,4.97,2.83,5.59v.83Z"/>
        <path class="cls-1" d="M402.99,165.53h-11.59v-.9c2.62-.76,2.76-2,2.76-5.52v-19.1c0-2.41-.55-3.38-3.45-4.14v-.83l9.45-2v26.07c0,3.86,.35,4.9,2.83,5.52v.9Zm-10-41.73c0-2,1.52-3.52,3.52-3.52s3.52,1.52,3.52,3.52-1.59,3.52-3.52,3.52-3.52-1.59-3.52-3.52Z"/>
        <path class="cls-1" d="M433.42,134.56c1.38,1.66,1.17,4-.48,5.38-1.59,1.31-3.93,1.17-5.38-.48-.62-.76-.96-1.72-.76-2.62,.21-1.17-4.41,.48-6.55,5.11v17.17c0,3.86,.34,4.9,2.83,5.52v.9h-11.66v-.9c2.62-.76,2.76-1.93,2.76-5.52v-19.1c0-2.41-.62-3.38-3.45-4.14v-.83l9.52-2v7.24c2.55-4.69,6.48-6.69,9.24-7.03,1.24-.14,2.97,.21,3.93,1.31Z"/>
      </g>
    </g>
  </g>
</svg>