<?xml version="1.0" encoding="UTF-8"?>
<svg id="Calque_2" data-name="Calque 2" xmlns="http://www.w3.org/2000/svg" viewBox="0 0 57.41 84.82">
  <defs>
    <style>
      .cls-1 {
        fill: #4d4d4d;
      }

      .cls-2 {
        fill: gray;
      }
    </style>
  </defs>
  <g id="Calque_4" data-name="Calque 4">
    <g>
      <g>
        <path class="cls-1" d="M1.99,84.82c-1.1,0-1.99-.89-1.99-1.99V0H57.41V65.43c0,1.1-.89,1.99-1.99,1.99s-1.99-.89-1.99-1.99V3.99H3.98V82.82c0,1.1-.89,1.99-1.99,1.99Z"/>
        <g>
          <path class="cls-1" d="M55.42,84.82c-.42,0-.78-.26-.93-.63-13.13-7.73-22.3-21.16-24.7-36.16h-.32c-2.78,15.66-12.83,29.32-27.02,36.65-.49,.25-1.09,.06-1.34-.43s-.06-1.09,.43-1.34c13.89-7.17,23.65-20.64,26.11-36.03l.13-.84h3.73l.12,.86c2.12,14.9,11.2,28.29,24.28,35.82l.5,.29v.83c0,.55-.45,1-1,1Z"/>
          <path class="cls-1" d="M29.52,63.74c-.55,0-1-.45-1-1v-4.34c0-.55,.45-1,1-1s1,.45,1,1v4.34c0,.55-.45,1-1,1Z"/>
          <path class="cls-1" d="M29.52,78.68c-.55,0-1-.45-1-1v-7.8c0-.55,.45-1,1-1s1,.45,1,1v7.8c0,.55-.45,1-1,1Z"/>
        </g>
      </g>
      <g>
        <path class="cls-2" d="M44.97,45.54c-.82,0-1.49-.67-1.49-1.5,0-7.61-6.18-13.81-13.78-13.81s-13.78,6.19-13.78,13.81c0,.83-.67,1.5-1.49,1.5s-1.49-.67-1.49-1.5c0-9.26,7.52-16.8,16.77-16.8s16.77,7.54,16.77,16.8c0,.83-.67,1.5-1.49,1.5Z"/>
        <path class="cls-2" d="M33.16,43.7h-6.91c-.82,0-1.49-.67-1.49-1.5s.67-1.5,1.49-1.5h6.91c.82,0,1.49,.67,1.49,1.5s-.67,1.5-1.49,1.5Z"/>
      </g>
      <g>
        <rect class="cls-2" x="28.71" y="13.08" width="1.99" height="12.35"/>
        <rect class="cls-2" x="25.3" y="16.16" width="8.8" height="1.99"/>
      </g>
    </g>
  </g>
</svg>