<?xml version="1.0" encoding="UTF-8"?>
<svg id="Calque_2" data-name="Calque 2" xmlns="http://www.w3.org/2000/svg" viewBox="0 0 508.42 185.69">
  <defs>
    <style>
      .cls-1 {
        fill: #fff;
      }
    </style>
  </defs>
  <g id="Calque_4" data-name="Calque 4">
    <g>
      <g>
        <g>
          <path class="cls-1" d="M4.35,185.69c-2.4,0-4.35-1.96-4.35-4.37V0H125.38V143.24c0,2.41-1.95,4.37-4.35,4.37s-4.35-1.96-4.35-4.37V8.73H8.69V181.33c0,2.41-1.95,4.37-4.35,4.37Z"/>
          <g>
            <path class="cls-1" d="M121.03,185.69c-.92,0-1.71-.57-2.02-1.39-28.67-16.92-48.7-46.33-53.95-79.16h-.71c-6.06,34.29-28.01,64.19-59.01,80.23-1.07,.56-2.38,.13-2.93-.94s-.13-2.39,.94-2.94c30.33-15.7,51.64-45.19,57.02-78.88l.29-1.84h8.15l.27,1.88c4.63,32.62,24.46,61.93,53.03,78.41l1.09,.63v1.81c0,1.21-.97,2.18-2.17,2.18Z"/>
            <path class="cls-1" d="M64.47,139.55c-1.2,0-2.17-.98-2.17-2.18v-9.5c0-1.21,.97-2.18,2.17-2.18s2.17,.98,2.17,2.18v9.5c0,1.21-.97,2.18-2.17,2.18Z"/>
            <path class="cls-1" d="M64.47,172.25c-1.2,0-2.17-.98-2.17-2.18v-17.08c0-1.21,.97-2.18,2.17-2.18s2.17,.98,2.17,2.18v17.08c0,1.21-.97,2.18-2.17,2.18Z"/>
          </g>
        </g>
        <g>
          <path class="cls-1" d="M98.22,99.71c-1.8,0-3.26-1.47-3.26-3.27,0-16.67-13.5-30.23-30.09-30.23s-30.09,13.56-30.09,30.23c0,1.81-1.46,3.27-3.26,3.27s-3.26-1.47-3.26-3.27c0-20.28,16.43-36.78,36.61-36.78s36.61,16.5,36.61,36.78c0,1.81-1.46,3.27-3.26,3.27Z"/>
          <path class="cls-1" d="M72.41,95.68h-15.1c-1.8,0-3.26-1.47-3.26-3.27s1.46-3.27,3.26-3.27h15.1c1.8,0,3.26,1.47,3.26,3.27s-1.46,3.27-3.26,3.27Z"/>
        </g>
        <g>
          <rect class="cls-1" x="62.69" y="28.65" width="4.35" height="27.03"/>
          <rect class="cls-1" x="55.25" y="35.38" width="19.22" height="4.37"/>
        </g>
      </g>
      <g>
        <path class="cls-1" d="M224.87,73.6h-15.39v-.88c3.65,0,2.97-3.87,1.42-7.66l-2.36-5.9h-17.48c-1.82,5.42-4.79,13.83,4.59,13.56v.88h-15.05v-.88c2.57-.07,4.25-.34,10.13-16l11.27-30.85h.74c8.24,19.93,16.61,41.36,16.61,41.36,2.23,5.42,3.65,5.36,5.54,5.49v.88Zm-16.61-15.32l-8.84-22.51-8.17,22.51h17.01Z"/>
        <path class="cls-1" d="M259.02,72.86l-7.7,1.29c-1.62,.34-1.62-1.02-1.62-1.02v-5.76c-1.22,3.59-5.6,6.85-10.13,6.85-4.86,0-9.65-1.76-9.65-10.24v-15.26c0-4.34,.07-4.68-3.78-4.95v-.81l9.59-1.29v22.11c0,5.15,3.04,7.12,6.95,7.12,3.37,0,5.8-2.37,7.02-5.22v-17.09c0-4.14,.13-4.61-3.17-4.81v-.81l9.05-1.29v26.31c0,3.25,.61,3.66,3.44,4v.88Z"/>
        <path class="cls-1" d="M265.57,48.79c0-2.31-.47-3.59-3.38-4.34v-.81l9.25-1.97v28.55c0,12.81-4.66,17.15-11.34,18.85v-.81c5.47-1.7,5.47-14.1,5.47-16.48v-22.99Zm-1.15-16.21c0-1.97,1.55-3.53,3.44-3.53s3.44,1.56,3.44,3.53-1.55,3.46-3.44,3.46-3.44-1.56-3.44-3.46Z"/>
        <path class="cls-1" d="M294.79,74.21c-10.26,0-15.59-7.39-15.59-16.27s5.33-16.27,15.59-16.27,15.53,7.32,15.53,16.27-5.2,16.27-15.53,16.27Zm0-31.67c-5.2,0-8.71,3.12-8.71,15.39s3.51,15.39,8.71,15.39,8.57-3.12,8.57-15.39-3.44-15.39-8.57-15.39Z"/>
        <path class="cls-1" d="M347.11,72.86l-7.7,1.29c-1.62,.34-1.62-1.02-1.62-1.02v-5.76c-1.22,3.59-5.6,6.85-10.13,6.85-4.86,0-9.65-1.76-9.65-10.24v-15.26c0-4.34,.07-4.68-3.78-4.95v-.81l9.59-1.29v22.11c0,5.15,3.04,7.12,6.95,7.12,3.37,0,5.8-2.37,7.02-5.22v-17.09c0-4.14,.13-4.61-3.17-4.81v-.81l9.05-1.29v26.31c0,3.25,.61,3.66,3.44,4v.88Z"/>
        <path class="cls-1" d="M371.47,43.16c1.35,1.63,1.15,3.93-.47,5.29-1.55,1.29-3.85,1.15-5.27-.47-.61-.75-.94-1.7-.74-2.58,.2-1.15-4.32,.47-6.41,5.02v16.88c0,3.8,.34,4.81,2.77,5.42v.88h-11.41v-.88c2.57-.75,2.7-1.9,2.7-5.42v-18.78c0-2.37-.61-3.32-3.37-4.07v-.81l9.32-1.97v7.12c2.5-4.61,6.35-6.58,9.04-6.92,1.22-.14,2.9,.2,3.85,1.29Z"/>
        <path class="cls-1" d="M408.8,72.93l-7.36,1.22c-1.89,.34-1.89-1.22-1.89-1.22v-3.73c-2.09,3.46-6.62,5.02-9.92,5.02-9.05,0-14.24-7.19-14.24-16.68,0-10.51,6.82-15.87,15.86-15.87,3.31,0,6.08,.95,8.3,2.51v-14.1c0-2.37-.67-3.25-3.44-3.8v-.88l9.25-1.83v44.75c0,3.32,.74,3.73,3.44,3.73v.88Zm-9.25-20.55c0-6.58-4.05-9.83-8.17-9.83-4.46,0-8.98,3.19-8.98,14.04s3.44,15.66,9.32,15.66c4.46,0,7.83-3.25,7.83-8v-11.87Z"/>
        <path class="cls-1" d="M414.33,41.53c4.52-3.25,4.12-7.39,3.04-7.53-.94-.14-1.82-.41-2.63-1.15-1.55-1.56-1.62-4.07-.07-5.63,1.55-1.56,4.05-1.56,5.6,0,2.36,2.37,1.22,7.19-.61,10.17-.88,1.36-1.96,3.12-4.93,4.68l-.4-.54Z"/>
        <path class="cls-1" d="M457.94,73.6h-11.27v-.81c2.57-.75,2.7-2.04,2.7-5.49v-14.44c0-4.88-2.29-7.73-7.02-7.73-3.37,0-5.87,3.12-6.95,5.42v16.75c0,3.73,.34,4.81,2.77,5.42v.88h-11.41v-.88c2.57-.75,2.7-1.97,2.7-5.42V30.14c0-2.37-.61-3.19-3.37-3.66v-.88l9.32-2.04v25.77c1.01-3.86,6.08-7.66,10.46-7.66,5.54,0,9.32,2.78,9.32,10.92v14.71c0,3.73,.41,4.88,2.77,5.49v.81Z"/>
        <path class="cls-1" d="M493.24,72.86l-7.7,1.29c-1.62,.34-1.62-1.02-1.62-1.02v-5.76c-1.22,3.59-5.6,6.85-10.13,6.85-4.86,0-9.65-1.76-9.65-10.24v-15.26c0-4.34,.07-4.68-3.78-4.95v-.81l9.59-1.29v22.11c0,5.15,3.04,7.12,6.95,7.12,3.37,0,5.8-2.37,7.02-5.22v-17.09c0-4.14,.13-4.61-3.17-4.81v-.81l9.05-1.29v26.31c0,3.25,.61,3.66,3.44,4v.88Z"/>
        <path class="cls-1" d="M508.42,73.6h-11.34v-.88c2.57-.75,2.7-1.97,2.7-5.42v-18.78c0-2.37-.54-3.32-3.38-4.07v-.81l9.25-1.97v25.63c0,3.8,.34,4.81,2.77,5.42v.88Zm-9.79-41.02c0-1.97,1.48-3.46,3.44-3.46s3.44,1.49,3.44,3.46-1.55,3.46-3.44,3.46-3.44-1.56-3.44-3.46Z"/>
      </g>
      <g>
        <path class="cls-1" d="M192.6,162.73h-11.34v-.88c2.57-.75,2.7-1.9,2.7-5.36v-37.23c0-2.37-.61-3.32-3.37-3.86v-.88l9.32-1.83v43.8c0,3.73,.34,4.75,2.7,5.36v.88Z"/>
        <path class="cls-1" d="M218.1,130.66c4.52-3.25,4.12-7.39,3.04-7.53-.94-.14-1.82-.41-2.63-1.15-1.55-1.56-1.62-4.07-.07-5.63,1.55-1.56,4.05-1.56,5.6,0,2.36,2.37,1.22,7.19-.61,10.17-.88,1.36-1.96,3.12-4.93,4.68l-.4-.54Z"/>
        <path class="cls-1" d="M278.22,162.73h-15.39v-.88c3.65,0,2.97-3.87,1.42-7.66l-2.36-5.9h-17.48c-1.82,5.42-4.79,13.83,4.59,13.56v.88h-15.05v-.88c2.57-.07,4.25-.34,10.13-16l11.27-30.85h.74c8.24,19.93,16.61,41.36,16.61,41.36,2.23,5.42,3.65,5.36,5.54,5.49v.88Zm-16.61-15.32l-8.84-22.51-8.17,22.51h17.01Z"/>
        <path class="cls-1" d="M308.2,130.8v.88c-2.57,0-4.59,.07-8.17,8.68l-8.37,22.38h-.67c-11.95-26.04-12.83-27.67-12.83-27.67-1.69-3.39-3.58-3.32-4.73-3.39v-.88h14.04v.88c-4.52,0-2.09,4.68-2.09,4.68l8.37,18.38,5.2-14.04s3.58-9.02-3.78-9.02v-.88h13.03Z"/>
        <path class="cls-1" d="M338.45,154.12c-.74,3.19-4.46,8.61-12.42,8.61-8.44,0-14.45-7.05-14.45-16,0-10.04,6.35-16.55,14.72-16.55,7.83,0,13.23,5.02,13.23,15.66h-21.6c.27,9.15,4.32,12.81,9.65,13.36,4.05,.41,8.84-2.1,10.06-5.42l.81,.34Zm-4.72-9.15c0-9.9-4.39-13.9-7.63-13.9-3.85,0-8.17,5.36-8.17,13.9h15.8Z"/>
        <path class="cls-1" d="M376.16,162.73h-11.34v-.81c2.57-.75,2.7-2.04,2.7-5.49v-14.58c0-4.61-2.43-7.66-6.89-7.66-3.51,0-6.35,3.39-6.89,5.83v16.48c0,3.73,.34,4.75,2.77,5.36v.88h-11.34v-.88c2.57-.75,2.63-1.9,2.63-5.36v-18.92c0-2.37-.54-3.25-3.38-4v-.81l9.32-1.97v7.12c1.42-3.93,6.08-7.12,10.33-7.12,5.47,0,9.32,2.65,9.32,10.85v14.78c0,3.73,.41,4.88,2.77,5.49v.81Z"/>
        <path class="cls-1" d="M394.44,162.73h-11.34v-.88c2.57-.75,2.7-1.97,2.7-5.42v-18.78c0-2.37-.54-3.32-3.38-4.07v-.81l9.25-1.97v25.63c0,3.8,.34,4.81,2.77,5.42v.88Zm-9.79-41.02c0-1.97,1.48-3.46,3.44-3.46s3.44,1.49,3.44,3.46-1.55,3.46-3.44,3.46-3.44-1.56-3.44-3.46Z"/>
        <path class="cls-1" d="M424.23,132.29c1.35,1.63,1.15,3.93-.47,5.29-1.55,1.29-3.85,1.15-5.27-.47-.61-.75-.94-1.7-.74-2.58,.2-1.15-4.32,.47-6.41,5.02v16.88c0,3.8,.34,4.81,2.77,5.42v.88h-11.41v-.88c2.57-.75,2.7-1.9,2.7-5.42v-18.78c0-2.37-.61-3.32-3.37-4.07v-.81l9.32-1.97v7.12c2.5-4.61,6.35-6.58,9.04-6.92,1.22-.14,2.9,.2,3.85,1.29Z"/>
      </g>
    </g>
  </g>
</svg>