<?xml version="1.0" encoding="UTF-8"?>
<svg id="Calque_2" data-name="Calque 2" xmlns="http://www.w3.org/2000/svg" viewBox="0 0 269.59 311.04">
  <defs>
    <style>
      .cls-1 {
        fill: #fff9e6;
      }

      .cls-2 {
        fill: #ffd166;
      }

      .cls-3 {
        fill: #749e70;
      }
    </style>
  </defs>
  <g id="Calque_4" data-name="Calque 4">
    <g>
      <g>
        <g>
          <path class="cls-3" d="M86.85,152.03c-1.97,0-3.58-1.6-3.58-3.58V0h103.1V117.27c0,1.97-1.6,3.58-3.58,3.58s-3.58-1.6-3.58-3.58V7.15H90.42V148.45c0,1.97-1.6,3.58-3.58,3.58Z"/>
          <g>
            <path class="cls-3" d="M182.8,152.03c-.76,0-1.4-.47-1.66-1.13-23.58-13.85-40.05-37.93-44.36-64.81h-.58c-4.99,28.07-23.04,52.55-48.52,65.69-.88,.46-1.96,.11-2.41-.77s-.11-1.96,.77-2.41c24.94-12.85,42.47-37,46.89-64.58l.24-1.5h6.7l.22,1.54c3.81,26.71,20.11,50.7,43.61,64.2l.9,.51v1.48c0,.99-.8,1.79-1.79,1.79Z"/>
            <path class="cls-3" d="M136.29,114.25c-.99,0-1.79-.8-1.79-1.79v-7.78c0-.99,.8-1.79,1.79-1.79s1.79,.8,1.79,1.79v7.78c0,.99-.8,1.79-1.79,1.79Z"/>
            <path class="cls-3" d="M136.29,141.03c-.99,0-1.79-.8-1.79-1.79v-13.99c0-.99,.8-1.79,1.79-1.79s1.79,.8,1.79,1.79v13.99c0,.99-.8,1.79-1.79,1.79Z"/>
          </g>
        </g>
        <g>
          <path class="cls-2" d="M164.04,81.63c-1.48,0-2.68-1.2-2.68-2.68,0-13.65-11.1-24.75-24.75-24.75s-24.75,11.1-24.75,24.75c0,1.48-1.2,2.68-2.68,2.68s-2.68-1.2-2.68-2.68c0-16.6,13.51-30.11,30.11-30.11s30.11,13.51,30.11,30.11c0,1.48-1.2,2.68-2.68,2.68Z"/>
          <path class="cls-2" d="M142.82,78.33h-12.41c-1.48,0-2.68-1.2-2.68-2.68s1.2-2.68,2.68-2.68h12.41c1.48,0,2.68,1.2,2.68,2.68s-1.2,2.68-2.68,2.68Z"/>
        </g>
        <g>
          <rect class="cls-2" x="134.83" y="23.45" width="3.58" height="22.13"/>
          <rect class="cls-2" x="128.71" y="28.97" width="15.8" height="3.58"/>
        </g>
      </g>
      <g>
        <g>
          <path class="cls-1" d="M36.42,238.07h-12.66v-.72c3,0,2.44-3.17,1.17-6.27l-1.94-4.83H8.6c-1.5,4.44-3.94,11.32,3.77,11.1v.72H0v-.72c2.11-.06,3.5-.28,8.33-13.1l9.27-25.26h.61c6.77,16.32,13.66,33.86,13.66,33.86,1.83,4.44,3,4.38,4.55,4.5v.72Zm-13.66-12.55l-7.27-18.43-6.72,18.43h13.99Z"/>
          <path class="cls-1" d="M64.5,237.46l-6.33,1.05c-1.33,.28-1.33-.83-1.33-.83v-4.72c-1,2.94-4.61,5.61-8.33,5.61-4,0-7.94-1.44-7.94-8.38v-12.49c0-3.55,.06-3.83-3.11-4.05v-.67l7.88-1.06v18.1c0,4.22,2.5,5.83,5.72,5.83,2.78,0,4.77-1.94,5.77-4.28v-13.99c0-3.39,.11-3.78-2.61-3.94v-.67l7.44-1.06v21.54c0,2.66,.5,3,2.83,3.27v.72Z"/>
          <path class="cls-1" d="M69.88,217.75c0-1.89-.39-2.94-2.78-3.55v-.67l7.61-1.61v23.37c0,10.49-3.83,14.04-9.33,15.43v-.67c4.5-1.39,4.5-11.55,4.5-13.49v-18.82Zm-.94-13.27c0-1.61,1.28-2.89,2.83-2.89s2.83,1.28,2.83,2.89-1.28,2.83-2.83,2.83-2.83-1.28-2.83-2.83Z"/>
          <path class="cls-1" d="M93.92,238.57c-8.44,0-12.82-6.05-12.82-13.32s4.39-13.32,12.82-13.32,12.77,6,12.77,13.32-4.28,13.32-12.77,13.32Zm0-25.92c-4.28,0-7.16,2.55-7.16,12.6s2.89,12.6,7.16,12.6,7.05-2.55,7.05-12.6-2.83-12.6-7.05-12.6Z"/>
          <path class="cls-1" d="M136.94,237.46l-6.33,1.05c-1.33,.28-1.33-.83-1.33-.83v-4.72c-1,2.94-4.61,5.61-8.33,5.61-4,0-7.94-1.44-7.94-8.38v-12.49c0-3.55,.06-3.83-3.11-4.05v-.67l7.88-1.06v18.1c0,4.22,2.5,5.83,5.72,5.83,2.78,0,4.77-1.94,5.77-4.28v-13.99c0-3.39,.11-3.78-2.61-3.94v-.67l7.44-1.06v21.54c0,2.66,.5,3,2.83,3.27v.72Z"/>
          <path class="cls-1" d="M156.97,213.15c1.11,1.33,.94,3.22-.39,4.33-1.28,1.06-3.16,.94-4.33-.39-.5-.61-.78-1.39-.61-2.11,.17-.94-3.55,.39-5.27,4.11v13.82c0,3.11,.28,3.94,2.28,4.44v.72h-9.38v-.72c2.11-.61,2.22-1.55,2.22-4.44v-15.38c0-1.94-.5-2.72-2.78-3.33v-.67l7.66-1.61v5.83c2.05-3.77,5.22-5.39,7.44-5.66,1-.11,2.39,.17,3.17,1.05Z"/>
          <path class="cls-1" d="M187.67,237.52l-6.05,1c-1.55,.28-1.55-1-1.55-1v-3.05c-1.72,2.83-5.44,4.11-8.16,4.11-7.44,0-11.71-5.88-11.71-13.66,0-8.6,5.61-12.99,13.05-12.99,2.72,0,5,.78,6.83,2.06v-11.55c0-1.94-.56-2.66-2.83-3.11v-.72l7.61-1.5v36.64c0,2.72,.61,3.05,2.83,3.05v.72Zm-7.61-16.82c0-5.39-3.33-8.05-6.72-8.05-3.66,0-7.38,2.61-7.38,11.49s2.83,12.82,7.66,12.82c3.66,0,6.44-2.66,6.44-6.55v-9.71Z"/>
          <path class="cls-1" d="M192.22,211.81c3.72-2.66,3.39-6.05,2.5-6.16-.78-.11-1.5-.33-2.16-.94-1.28-1.28-1.33-3.33-.06-4.61,1.28-1.28,3.33-1.28,4.61,0,1.94,1.94,1,5.88-.5,8.33-.72,1.11-1.61,2.55-4.05,3.83l-.33-.44Z"/>
          <path class="cls-1" d="M228.08,238.07h-9.27v-.67c2.11-.61,2.22-1.67,2.22-4.5v-11.82c0-4-1.89-6.33-5.77-6.33-2.78,0-4.83,2.55-5.72,4.44v13.71c0,3.05,.28,3.94,2.28,4.44v.72h-9.38v-.72c2.11-.61,2.22-1.61,2.22-4.44v-30.42c0-1.94-.5-2.61-2.78-3v-.72l7.66-1.67v21.1c.83-3.16,5-6.27,8.6-6.27,4.55,0,7.66,2.28,7.66,8.94v12.05c0,3.05,.33,4,2.28,4.5v.67Z"/>
          <path class="cls-1" d="M257.11,237.46l-6.33,1.05c-1.33,.28-1.33-.83-1.33-.83v-4.72c-1,2.94-4.61,5.61-8.33,5.61-4,0-7.94-1.44-7.94-8.38v-12.49c0-3.55,.06-3.83-3.11-4.05v-.67l7.88-1.06v18.1c0,4.22,2.5,5.83,5.72,5.83,2.78,0,4.77-1.94,5.77-4.28v-13.99c0-3.39,.11-3.78-2.61-3.94v-.67l7.44-1.06v21.54c0,2.66,.5,3,2.83,3.27v.72Z"/>
          <path class="cls-1" d="M269.59,238.07h-9.33v-.72c2.11-.61,2.22-1.61,2.22-4.44v-15.38c0-1.94-.44-2.72-2.78-3.33v-.67l7.61-1.61v20.99c0,3.11,.28,3.94,2.28,4.44v.72Zm-8.05-33.59c0-1.61,1.22-2.83,2.83-2.83s2.83,1.22,2.83,2.83-1.28,2.83-2.83,2.83-2.83-1.28-2.83-2.83Z"/>
        </g>
        <g>
          <path class="cls-1" d="M44.13,311.04h-9.33v-.72c2.11-.61,2.22-1.55,2.22-4.39v-30.48c0-1.94-.5-2.72-2.78-3.16v-.72l7.66-1.5v35.86c0,3.05,.28,3.89,2.22,4.39v.72Z"/>
          <path class="cls-1" d="M65.1,284.79c3.72-2.66,3.39-6.05,2.5-6.16-.78-.11-1.5-.33-2.16-.94-1.28-1.28-1.33-3.33-.06-4.61,1.28-1.28,3.33-1.28,4.61,0,1.94,1.94,1,5.88-.5,8.33-.72,1.11-1.61,2.55-4.05,3.83l-.33-.44Z"/>
          <path class="cls-1" d="M114.54,311.04h-12.66v-.72c3,0,2.44-3.17,1.17-6.27l-1.94-4.83h-14.38c-1.5,4.44-3.94,11.32,3.77,11.1v.72h-12.38v-.72c2.11-.06,3.5-.28,8.33-13.1l9.27-25.26h.61c6.77,16.32,13.66,33.86,13.66,33.86,1.83,4.44,3,4.38,4.55,4.5v.72Zm-13.66-12.55l-7.27-18.43-6.72,18.43h13.99Z"/>
          <path class="cls-1" d="M139.19,284.9v.72c-2.11,0-3.77,.06-6.72,7.11l-6.88,18.32h-.56c-9.83-21.32-10.55-22.65-10.55-22.65-1.39-2.78-2.94-2.72-3.89-2.78v-.72h11.55v.72c-3.72,0-1.72,3.83-1.72,3.83l6.88,15.04,4.27-11.49s2.94-7.38-3.11-7.38v-.72h10.71Z"/>
          <path class="cls-1" d="M164.07,303.99c-.61,2.61-3.66,7.05-10.21,7.05-6.94,0-11.88-5.77-11.88-13.1,0-8.22,5.22-13.55,12.1-13.55,6.44,0,10.88,4.11,10.88,12.82h-17.76c.22,7.49,3.55,10.49,7.94,10.94,3.33,.33,7.27-1.72,8.27-4.44l.67,.28Zm-3.89-7.49c0-8.11-3.61-11.38-6.27-11.38-3.16,0-6.72,4.39-6.72,11.38h12.99Z"/>
          <path class="cls-1" d="M195.08,311.04h-9.33v-.67c2.11-.61,2.22-1.67,2.22-4.5v-11.94c0-3.77-2-6.27-5.66-6.27-2.89,0-5.22,2.78-5.66,4.77v13.49c0,3.05,.28,3.89,2.28,4.39v.72h-9.33v-.72c2.11-.61,2.17-1.55,2.17-4.39v-15.49c0-1.94-.44-2.66-2.78-3.27v-.67l7.66-1.61v5.83c1.17-3.22,5-5.83,8.49-5.83,4.5,0,7.66,2.17,7.66,8.88v12.1c0,3.05,.33,4,2.28,4.5v.67Z"/>
          <path class="cls-1" d="M210.11,311.04h-9.33v-.72c2.11-.61,2.22-1.61,2.22-4.44v-15.38c0-1.94-.44-2.72-2.78-3.33v-.67l7.61-1.61v20.99c0,3.11,.28,3.94,2.28,4.44v.72Zm-8.05-33.59c0-1.61,1.22-2.83,2.83-2.83s2.83,1.22,2.83,2.83-1.28,2.83-2.83,2.83-2.83-1.28-2.83-2.83Z"/>
          <path class="cls-1" d="M234.61,286.12c1.11,1.33,.94,3.22-.39,4.33-1.28,1.06-3.16,.94-4.33-.39-.5-.61-.78-1.39-.61-2.11,.17-.94-3.55,.39-5.27,4.11v13.82c0,3.11,.28,3.94,2.28,4.44v.72h-9.38v-.72c2.11-.61,2.22-1.55,2.22-4.44v-15.38c0-1.94-.5-2.72-2.78-3.33v-.67l7.66-1.61v5.83c2.05-3.77,5.22-5.39,7.44-5.66,1-.11,2.39,.17,3.17,1.05Z"/>
        </g>
      </g>
    </g>
  </g>
</svg>