<?xml version="1.0" encoding="UTF-8"?>
<svg id="Calque_2" data-name="Calque 2" xmlns="http://www.w3.org/2000/svg" viewBox="0 0 79.17 117.25">
  <defs>
    <style>
      .cls-1 {
        fill: #ffd166;
      }

      .cls-2 {
        fill: #749e70;
      }
    </style>
  </defs>
  <g id="Calque_4" data-name="Calque 4">
    <g>
      <g>
        <path class="cls-2" d="M2.75,117.25c-1.52,0-2.75-1.23-2.75-2.76V0H79.17V90.44c0,1.52-1.23,2.76-2.75,2.76s-2.75-1.23-2.75-2.76V5.51H5.49V114.49c0,1.52-1.23,2.76-2.75,2.76Z"/>
        <g>
          <path class="cls-2" d="M76.42,117.25c-.58,0-1.08-.36-1.28-.88-18.11-10.68-30.75-29.25-34.06-49.98h-.45c-3.83,21.65-17.69,40.53-37.26,50.66-.67,.35-1.5,.08-1.85-.59s-.08-1.51,.59-1.86c19.15-9.91,32.61-28.53,36-49.81l.18-1.16h5.15l.17,1.18c2.93,20.6,15.44,39.11,33.49,49.51l.69,.4v1.14c0,.76-.61,1.38-1.37,1.38Z"/>
          <path class="cls-2" d="M40.71,88.12c-.76,0-1.37-.62-1.37-1.38v-6c0-.76,.61-1.38,1.37-1.38s1.37,.62,1.37,1.38v6c0,.76-.61,1.38-1.37,1.38Z"/>
          <path class="cls-2" d="M40.71,108.76c-.76,0-1.37-.62-1.37-1.38v-10.79c0-.76,.61-1.38,1.37-1.38s1.37,.62,1.37,1.38v10.79c0,.76-.61,1.38-1.37,1.38Z"/>
        </g>
      </g>
      <g>
        <path class="cls-1" d="M62.02,62.96c-1.14,0-2.06-.93-2.06-2.07,0-10.52-8.52-19.09-19-19.09s-19,8.56-19,19.09c0,1.14-.92,2.07-2.06,2.07s-2.06-.93-2.06-2.07c0-12.8,10.37-23.22,23.12-23.22s23.12,10.42,23.12,23.22c0,1.14-.92,2.07-2.06,2.07Z"/>
        <path class="cls-1" d="M45.72,60.41h-9.53c-1.14,0-2.06-.93-2.06-2.07s.92-2.07,2.06-2.07h9.53c1.14,0,2.06,.93,2.06,2.07s-.92,2.07-2.06,2.07Z"/>
      </g>
      <g>
        <rect class="cls-1" x="39.58" y="18.09" width="2.75" height="17.07"/>
        <rect class="cls-1" x="34.89" y="22.34" width="12.14" height="2.76"/>
      </g>
    </g>
  </g>
</svg>