<?xml version="1.0" encoding="UTF-8"?>
<svg id="Calque_2" data-name="Calque 2" xmlns="http://www.w3.org/2000/svg" viewBox="0 0 170.23 196.4">
  <defs>
    <style>
      .cls-1 {
        fill: #3f3f40;
      }

      .cls-2 {
        fill: #ffd166;
      }

      .cls-3 {
        fill: #749e70;
      }
    </style>
  </defs>
  <g id="Calque_4" data-name="Calque 4">
    <g>
      <g>
        <g>
          <path class="cls-3" d="M54.84,96c-1.25,0-2.26-1.01-2.26-2.26V0H117.68V74.05c0,1.25-1.01,2.26-2.26,2.26s-2.26-1.01-2.26-2.26V4.51H57.1V93.74c0,1.25-1.01,2.26-2.26,2.26Z"/>
          <g>
            <path class="cls-3" d="M115.43,96c-.48,0-.89-.3-1.05-.72-14.89-8.75-25.29-23.95-28.01-40.92h-.37c-3.15,17.73-14.55,33.18-30.64,41.48-.55,.29-1.23,.07-1.52-.49s-.07-1.23,.49-1.52c15.75-8.12,26.81-23.36,29.61-40.78l.15-.95h4.23l.14,.97c2.41,16.86,12.7,32.02,27.54,40.54l.57,.33v.94c0,.62-.5,1.13-1.13,1.13Z"/>
            <path class="cls-3" d="M86.06,72.14c-.62,0-1.13-.51-1.13-1.13v-4.91c0-.62,.5-1.13,1.13-1.13s1.13,.51,1.13,1.13v4.91c0,.62-.5,1.13-1.13,1.13Z"/>
            <path class="cls-3" d="M86.06,89.05c-.62,0-1.13-.5-1.13-1.13v-8.83c0-.62,.5-1.13,1.13-1.13s1.13,.51,1.13,1.13v8.83c0,.62-.5,1.13-1.13,1.13Z"/>
          </g>
        </g>
        <g>
          <path class="cls-2" d="M103.58,51.54c-.93,0-1.69-.76-1.69-1.69,0-8.62-7.01-15.63-15.63-15.63s-15.63,7.01-15.63,15.63c0,.93-.76,1.69-1.69,1.69s-1.69-.76-1.69-1.69c0-10.48,8.53-19.01,19.01-19.01s19.01,8.53,19.01,19.01c0,.93-.76,1.69-1.69,1.69Z"/>
          <path class="cls-2" d="M90.18,49.46h-7.84c-.93,0-1.69-.76-1.69-1.69s.76-1.69,1.69-1.69h7.84c.93,0,1.69,.76,1.69,1.69s-.76,1.69-1.69,1.69Z"/>
        </g>
        <g>
          <rect class="cls-2" x="85.13" y="14.81" width="2.26" height="13.97"/>
          <rect class="cls-2" x="81.27" y="18.29" width="9.98" height="2.26"/>
        </g>
      </g>
      <g>
        <g>
          <path class="cls-1" d="M22.99,150.33h-7.99v-.46c1.89,0,1.54-2,.74-3.96l-1.23-3.05H5.43c-.95,2.8-2.49,7.15,2.38,7.01v.46H0v-.46c1.33-.04,2.21-.18,5.26-8.27l5.85-15.95h.39c4.28,10.31,8.62,21.38,8.62,21.38,1.16,2.8,1.89,2.77,2.87,2.84v.46Zm-8.62-7.92l-4.59-11.64-4.24,11.64H14.37Z"/>
          <path class="cls-1" d="M40.73,149.94l-4,.67c-.84,.17-.84-.53-.84-.53v-2.98c-.63,1.86-2.91,3.54-5.26,3.54-2.52,0-5.01-.91-5.01-5.29v-7.89c0-2.24,.03-2.42-1.96-2.56v-.42l4.98-.67v11.43c0,2.66,1.58,3.68,3.61,3.68,1.75,0,3.01-1.23,3.65-2.7v-8.83c0-2.14,.07-2.38-1.65-2.49v-.42l4.7-.67v13.6c0,1.68,.32,1.89,1.79,2.07v.46Z"/>
          <path class="cls-1" d="M44.13,137.5c0-1.19-.25-1.86-1.75-2.24v-.42l4.8-1.02v14.76c0,6.62-2.42,8.87-5.89,9.74v-.42c2.84-.88,2.84-7.29,2.84-8.52v-11.88Zm-.6-8.38c0-1.02,.81-1.82,1.79-1.82s1.79,.81,1.79,1.82-.81,1.79-1.79,1.79-1.79-.81-1.79-1.79Z"/>
          <path class="cls-1" d="M59.3,150.64c-5.33,0-8.1-3.82-8.1-8.41s2.77-8.41,8.1-8.41,8.06,3.79,8.06,8.41-2.7,8.41-8.06,8.41Zm0-16.37c-2.7,0-4.52,1.61-4.52,7.96s1.82,7.96,4.52,7.96,4.45-1.61,4.45-7.96-1.79-7.96-4.45-7.96Z"/>
          <path class="cls-1" d="M86.47,149.94l-4,.67c-.84,.17-.84-.53-.84-.53v-2.98c-.63,1.86-2.91,3.54-5.26,3.54-2.52,0-5.01-.91-5.01-5.29v-7.89c0-2.24,.03-2.42-1.96-2.56v-.42l4.98-.67v11.43c0,2.66,1.58,3.68,3.61,3.68,1.75,0,3.01-1.23,3.65-2.7v-8.83c0-2.14,.07-2.38-1.65-2.49v-.42l4.7-.67v13.6c0,1.68,.32,1.89,1.79,2.07v.46Z"/>
          <path class="cls-1" d="M99.12,134.59c.7,.84,.6,2.03-.25,2.73-.81,.67-2,.6-2.73-.24-.32-.39-.49-.88-.39-1.33,.1-.6-2.24,.25-3.33,2.59v8.73c0,1.96,.17,2.49,1.44,2.8v.46h-5.92v-.46c1.33-.39,1.4-.98,1.4-2.8v-9.71c0-1.23-.32-1.72-1.75-2.1v-.42l4.84-1.02v3.68c1.3-2.38,3.29-3.4,4.7-3.58,.63-.07,1.51,.1,2,.67Z"/>
          <path class="cls-1" d="M118.5,149.98l-3.82,.63c-.98,.17-.98-.63-.98-.63v-1.93c-1.09,1.79-3.44,2.59-5.15,2.59-4.7,0-7.4-3.72-7.4-8.62,0-5.43,3.54-8.2,8.24-8.2,1.72,0,3.15,.49,4.31,1.3v-7.29c0-1.23-.35-1.68-1.79-1.96v-.46l4.8-.95v23.13c0,1.72,.39,1.93,1.79,1.93v.46Zm-4.8-10.62c0-3.4-2.1-5.08-4.24-5.08-2.31,0-4.66,1.65-4.66,7.26s1.79,8.1,4.84,8.1c2.31,0,4.07-1.68,4.07-4.14v-6.13Z"/>
          <path class="cls-1" d="M121.37,133.75c2.35-1.68,2.14-3.82,1.58-3.89-.49-.07-.95-.21-1.37-.6-.81-.81-.84-2.1-.03-2.91,.81-.81,2.1-.81,2.91,0,1.23,1.23,.63,3.72-.32,5.26-.46,.7-1.02,1.61-2.56,2.42l-.21-.28Z"/>
          <path class="cls-1" d="M144.01,150.33h-5.85v-.42c1.33-.39,1.4-1.05,1.4-2.84v-7.47c0-2.52-1.19-4-3.65-4-1.75,0-3.05,1.61-3.61,2.8v8.66c0,1.93,.17,2.49,1.44,2.8v.46h-5.92v-.46c1.33-.39,1.4-1.02,1.4-2.8v-19.21c0-1.23-.32-1.65-1.75-1.89v-.46l4.84-1.05v13.32c.53-2,3.15-3.96,5.43-3.96,2.87,0,4.84,1.44,4.84,5.64v7.61c0,1.93,.21,2.52,1.44,2.84v.42Z"/>
          <path class="cls-1" d="M162.34,149.94l-4,.67c-.84,.17-.84-.53-.84-.53v-2.98c-.63,1.86-2.91,3.54-5.26,3.54-2.52,0-5.01-.91-5.01-5.29v-7.89c0-2.24,.03-2.42-1.96-2.56v-.42l4.98-.67v11.43c0,2.66,1.58,3.68,3.61,3.68,1.75,0,3.01-1.23,3.65-2.7v-8.83c0-2.14,.07-2.38-1.65-2.49v-.42l4.7-.67v13.6c0,1.68,.32,1.89,1.79,2.07v.46Z"/>
          <path class="cls-1" d="M170.23,150.33h-5.89v-.46c1.33-.39,1.4-1.02,1.4-2.8v-9.71c0-1.23-.28-1.72-1.75-2.1v-.42l4.8-1.02v13.25c0,1.96,.18,2.49,1.44,2.8v.46Zm-5.08-21.21c0-1.02,.77-1.79,1.79-1.79s1.79,.77,1.79,1.79-.81,1.79-1.79,1.79-1.79-.81-1.79-1.79Z"/>
        </g>
        <g>
          <path class="cls-1" d="M27.87,196.4h-5.89v-.46c1.33-.39,1.4-.98,1.4-2.77v-19.24c0-1.23-.32-1.72-1.75-2v-.46l4.84-.95v22.64c0,1.93,.17,2.45,1.4,2.77v.46Z"/>
          <path class="cls-1" d="M41.1,179.82c2.35-1.68,2.14-3.82,1.58-3.89-.49-.07-.95-.21-1.37-.6-.81-.81-.84-2.1-.03-2.91,.81-.81,2.1-.81,2.91,0,1.23,1.23,.63,3.72-.32,5.26-.46,.7-1.02,1.61-2.56,2.42l-.21-.28Z"/>
          <path class="cls-1" d="M72.32,196.4h-7.99v-.46c1.89,0,1.54-2,.74-3.96l-1.23-3.05h-9.08c-.95,2.8-2.49,7.15,2.38,7.01v.46h-7.82v-.46c1.33-.04,2.21-.18,5.26-8.27l5.85-15.95h.39c4.28,10.31,8.62,21.38,8.62,21.38,1.16,2.8,1.89,2.77,2.87,2.84v.46Zm-8.62-7.92l-4.59-11.64-4.24,11.64h8.83Z"/>
          <path class="cls-1" d="M87.89,179.89v.46c-1.33,0-2.38,.03-4.24,4.49l-4.35,11.57h-.35c-6.2-13.46-6.66-14.3-6.66-14.3-.88-1.75-1.86-1.72-2.45-1.75v-.46h7.29v.46c-2.35,0-1.09,2.42-1.09,2.42l4.35,9.5,2.7-7.26s1.86-4.66-1.96-4.66v-.46h6.77Z"/>
          <path class="cls-1" d="M103.6,191.95c-.39,1.65-2.31,4.45-6.45,4.45-4.38,0-7.5-3.65-7.5-8.27,0-5.19,3.29-8.55,7.64-8.55,4.07,0,6.87,2.59,6.87,8.1h-11.22c.14,4.73,2.24,6.62,5.01,6.91,2.1,.21,4.59-1.09,5.22-2.8l.42,.17Zm-2.45-4.73c0-5.12-2.28-7.19-3.96-7.19-2,0-4.24,2.77-4.24,7.19h8.2Z"/>
          <path class="cls-1" d="M123.18,196.4h-5.89v-.42c1.33-.39,1.4-1.05,1.4-2.84v-7.54c0-2.38-1.26-3.96-3.58-3.96-1.82,0-3.29,1.75-3.58,3.01v8.52c0,1.93,.18,2.45,1.44,2.77v.46h-5.89v-.46c1.33-.39,1.37-.98,1.37-2.77v-9.78c0-1.23-.28-1.68-1.75-2.07v-.42l4.84-1.02v3.68c.74-2.03,3.15-3.68,5.36-3.68,2.84,0,4.84,1.37,4.84,5.61v7.64c0,1.93,.21,2.52,1.44,2.84v.42Z"/>
          <path class="cls-1" d="M132.67,196.4h-5.89v-.46c1.33-.39,1.4-1.02,1.4-2.8v-9.71c0-1.23-.28-1.72-1.75-2.1v-.42l4.8-1.02v13.25c0,1.96,.18,2.49,1.44,2.8v.46Zm-5.08-21.21c0-1.02,.77-1.79,1.79-1.79s1.79,.77,1.79,1.79-.81,1.79-1.79,1.79-1.79-.81-1.79-1.79Z"/>
          <path class="cls-1" d="M148.14,180.66c.7,.84,.6,2.03-.25,2.73-.81,.67-2,.6-2.73-.24-.32-.39-.49-.88-.39-1.33,.1-.6-2.24,.25-3.33,2.59v8.73c0,1.96,.17,2.49,1.44,2.8v.46h-5.92v-.46c1.33-.39,1.4-.98,1.4-2.8v-9.71c0-1.23-.32-1.72-1.75-2.1v-.42l4.84-1.02v3.68c1.3-2.38,3.29-3.4,4.7-3.58,.63-.07,1.51,.1,2,.67Z"/>
        </g>
      </g>
    </g>
  </g>
</svg>